<svg xmlns="http://www.w3.org/2000/svg" viewBox="0 0 1200 750" width="1200" height="750">
<defs>
  <linearGradient id="g" x1="0" y1="0" x2="1" y2="1"><stop offset="0" stop-color="#F97316"/><stop offset="1" stop-color="#E11D48"/></linearGradient>
  <radialGradient id="r" cx=".85" cy=".1" r=".7"><stop offset="0" stop-color="#fff" stop-opacity=".28"/><stop offset="1" stop-color="#fff" stop-opacity="0"/></radialGradient>
</defs>
<rect width="1200" height="750" fill="url(#g)"/>
<rect width="1200" height="750" fill="url(#r)"/>
<circle cx="80" cy="680" r="220" fill="#fff" fill-opacity=".07"/>
<circle cx="1120" cy="90" r="160" fill="#fff" fill-opacity=".08"/>
<g fill="#fff" fill-opacity=".25">
  <circle cx="160" cy="140" r="6"/><circle cx="200" cy="140" r="6"/><circle cx="240" cy="140" r="6"/>
  <circle cx="160" cy="180" r="6"/><circle cx="200" cy="180" r="6"/><circle cx="240" cy="180" r="6"/>
  <circle cx="960" cy="600" r="6"/><circle cx="1000" cy="600" r="6"/><circle cx="1040" cy="600" r="6"/>
  <circle cx="960" cy="640" r="6"/><circle cx="1000" cy="640" r="6"/><circle cx="1040" cy="640" r="6"/>
</g>

<g transform="translate(600 380) rotate(-6)">
  <rect x="-130" y="-250" width="260" height="500" rx="44" fill="#fff" fill-opacity=".2" stroke="#fff" stroke-opacity=".6" stroke-width="4"/>
  <rect x="-40" y="-228" width="80" height="16" rx="8" fill="#fff" fill-opacity=".6"/>
  <rect x="-95" y="-170" width="190" height="130" rx="20" fill="#fff" fill-opacity=".6"/>
  <rect x="-95" y="-15" width="190" height="16" rx="8" fill="#fff" fill-opacity=".55"/>
  <rect x="-95" y="20" width="120" height="14" rx="7" fill="#fff" fill-opacity=".4"/>
  <rect x="-95" y="150" width="190" height="56" rx="18" fill="#fff" fill-opacity=".8"/>
</g>
</svg>
