<svg xmlns="http://www.w3.org/2000/svg" viewBox="0 0 1200 750" width="1200" height="750">
<defs>
  <linearGradient id="g" x1="0" y1="0" x2="1" y2="1"><stop offset="0" stop-color="#059669"/><stop offset="1" stop-color="#0D9488"/></linearGradient>
  <radialGradient id="r" cx=".85" cy=".1" r=".7"><stop offset="0" stop-color="#fff" stop-opacity=".28"/><stop offset="1" stop-color="#fff" stop-opacity="0"/></radialGradient>
</defs>
<rect width="1200" height="750" fill="url(#g)"/>
<rect width="1200" height="750" fill="url(#r)"/>
<circle cx="80" cy="680" r="220" fill="#fff" fill-opacity=".07"/>
<circle cx="1120" cy="90" r="160" fill="#fff" fill-opacity=".08"/>
<g fill="#fff" fill-opacity=".25">
  <circle cx="160" cy="140" r="6"/><circle cx="200" cy="140" r="6"/><circle cx="240" cy="140" r="6"/>
  <circle cx="160" cy="180" r="6"/><circle cx="200" cy="180" r="6"/><circle cx="240" cy="180" r="6"/>
  <circle cx="960" cy="600" r="6"/><circle cx="1000" cy="600" r="6"/><circle cx="1040" cy="600" r="6"/>
  <circle cx="960" cy="640" r="6"/><circle cx="1000" cy="640" r="6"/><circle cx="1040" cy="640" r="6"/>
</g>

<g transform="translate(600 400)">
  <rect x="-130" y="-230" width="260" height="440" rx="26" fill="#fff" fill-opacity=".22" stroke="#fff" stroke-opacity=".6" stroke-width="4"/>
  <line x1="-130" y1="-70" x2="130" y2="-70" stroke="#fff" stroke-opacity=".6" stroke-width="4"/>
  <rect x="90" y="-180" width="14" height="70" rx="7" fill="#fff" fill-opacity=".8"/>
  <rect x="90" y="-30" width="14" height="110" rx="7" fill="#fff" fill-opacity=".8"/>
  <circle cx="-230" cy="120" r="60" fill="#fff" fill-opacity=".3"/>
  <circle cx="230" cy="-120" r="44" fill="#fff" fill-opacity=".3"/>
</g>
</svg>
